<svg width="167" height="40" viewBox="0 0 167 40" fill="none" xmlns="http://www.w3.org/2000/svg">
<path d="M64.265 12.0012C64.265 11.1852 64.449 10.4532 64.817 9.80521C65.185 9.14921 65.685 8.63721 66.317 8.26921C66.957 7.90121 67.665 7.71721 68.441 7.71721C69.353 7.71721 70.149 7.93721 70.829 8.37721C71.509 8.81721 72.005 9.44121 72.317 10.2492H71.009C70.777 9.74521 70.441 9.35721 70.001 9.08521C69.569 8.81321 69.049 8.67721 68.441 8.67721C67.857 8.67721 67.333 8.81321 66.869 9.08521C66.405 9.35721 66.041 9.74521 65.777 10.2492C65.513 10.7452 65.381 11.3292 65.381 12.0012C65.381 12.6652 65.513 13.2492 65.777 13.7532C66.041 14.2492 66.405 14.6332 66.869 14.9052C67.333 15.1772 67.857 15.3132 68.441 15.3132C69.049 15.3132 69.569 15.1812 70.001 14.9172C70.441 14.6452 70.777 14.2572 71.009 13.7532H72.317C72.005 14.5532 71.509 15.1732 70.829 15.6132C70.149 16.0452 69.353 16.2612 68.441 16.2612C67.665 16.2612 66.957 16.0812 66.317 15.7212C65.685 15.3532 65.185 14.8452 64.817 14.1972C64.449 13.5492 64.265 12.8172 64.265 12.0012ZM77.7346 16.2732C76.9586 16.2732 76.2506 16.0932 75.6106 15.7332C74.9706 15.3652 74.4626 14.8572 74.0866 14.2092C73.7186 13.5532 73.5346 12.8172 73.5346 12.0012C73.5346 11.1852 73.7186 10.4532 74.0866 9.80521C74.4626 9.14921 74.9706 8.64121 75.6106 8.28121C76.2506 7.91321 76.9586 7.72921 77.7346 7.72921C78.5186 7.72921 79.2306 7.91321 79.8706 8.28121C80.5106 8.64121 81.0146 9.14521 81.3826 9.79321C81.7506 10.4412 81.9346 11.1772 81.9346 12.0012C81.9346 12.8252 81.7506 13.5612 81.3826 14.2092C81.0146 14.8572 80.5106 15.3652 79.8706 15.7332C79.2306 16.0932 78.5186 16.2732 77.7346 16.2732ZM77.7346 15.3252C78.3186 15.3252 78.8426 15.1892 79.3066 14.9172C79.7786 14.6452 80.1466 14.2572 80.4106 13.7532C80.6826 13.2492 80.8186 12.6652 80.8186 12.0012C80.8186 11.3292 80.6826 10.7452 80.4106 10.2492C80.1466 9.74521 79.7826 9.35721 79.3186 9.08521C78.8546 8.81321 78.3266 8.67721 77.7346 8.67721C77.1426 8.67721 76.6146 8.81321 76.1506 9.08521C75.6866 9.35721 75.3186 9.74521 75.0466 10.2492C74.7826 10.7452 74.6506 11.3292 74.6506 12.0012C74.6506 12.6652 74.7826 13.2492 75.0466 13.7532C75.3186 14.2572 75.6866 14.6452 76.1506 14.9172C76.6226 15.1892 77.1506 15.3252 77.7346 15.3252ZM89.9521 16.1892H88.8601L84.4681 9.52921V16.1892H83.3761V7.81321H84.4681L88.8601 14.4612V7.81321H89.9521V16.1892ZM98.3896 16.1892H97.2976L92.9056 9.52921V16.1892H91.8136V7.81321H92.9056L97.2976 14.4612V7.81321H98.3896V16.1892ZM101.343 8.71321V11.5092H104.391V12.4092H101.343V15.2892H104.751V16.1892H100.251V7.81321H104.751V8.71321H101.343ZM105.995 12.0012C105.995 11.1852 106.179 10.4532 106.547 9.80521C106.915 9.14921 107.415 8.63721 108.047 8.26921C108.687 7.90121 109.395 7.71721 110.171 7.71721C111.083 7.71721 111.879 7.93721 112.559 8.37721C113.239 8.81721 113.735 9.44121 114.047 10.2492H112.739C112.507 9.74521 112.171 9.35721 111.731 9.08521C111.299 8.81321 110.779 8.67721 110.171 8.67721C109.587 8.67721 109.063 8.81321 108.599 9.08521C108.135 9.35721 107.771 9.74521 107.507 10.2492C107.243 10.7452 107.111 11.3292 107.111 12.0012C107.111 12.6652 107.243 13.2492 107.507 13.7532C107.771 14.2492 108.135 14.6332 108.599 14.9052C109.063 15.1772 109.587 15.3132 110.171 15.3132C110.779 15.3132 111.299 15.1812 111.731 14.9172C112.171 14.6452 112.507 14.2572 112.739 13.7532H114.047C113.735 14.5532 113.239 15.1732 112.559 15.6132C111.879 16.0452 111.083 16.2612 110.171 16.2612C109.395 16.2612 108.687 16.0812 108.047 15.7212C107.415 15.3532 106.915 14.8452 106.547 14.1972C106.179 13.5492 105.995 12.8172 105.995 12.0012ZM120.821 7.82521V8.71321H118.541V16.1892H117.449V8.71321H115.157V7.82521H120.821ZM123.293 14.6772L121.949 17.9052H121.217L122.093 14.6772H123.293ZM128.835 15.3012H131.763V16.1892H127.743V7.82521H128.835V15.3012ZM134.015 8.71321V11.5092H137.063V12.4092H134.015V15.2892H137.423V16.1892H132.923V7.81321H137.423V8.71321H134.015ZM144.019 14.3292H140.371L139.699 16.1892H138.547L141.571 7.87321H142.831L145.843 16.1892H144.691L144.019 14.3292ZM143.707 13.4412L142.195 9.21721L140.683 13.4412H143.707ZM151.565 16.1892L149.573 12.7692H148.253V16.1892H147.161V7.82521H149.861C150.493 7.82521 151.025 7.93321 151.457 8.14921C151.897 8.36521 152.225 8.65721 152.441 9.02521C152.657 9.39321 152.765 9.81321 152.765 10.2852C152.765 10.8612 152.597 11.3692 152.261 11.8092C151.933 12.2492 151.437 12.5412 150.773 12.6852L152.873 16.1892H151.565ZM148.253 11.8932H149.861C150.453 11.8932 150.897 11.7492 151.193 11.4612C151.489 11.1652 151.637 10.7732 151.637 10.2852C151.637 9.78921 151.489 9.40521 151.193 9.13321C150.905 8.86121 150.461 8.72521 149.861 8.72521H148.253V11.8932ZM161.038 16.1892H159.946L155.554 9.52921V16.1892H154.462V7.81321H155.554L159.946 14.4612V7.81321H161.038V16.1892ZM71.093 34.1892L70.001 33.0852C69.593 33.5092 69.157 33.8252 68.693 34.0332C68.229 34.2332 67.705 34.3332 67.121 34.3332C66.545 34.3332 66.033 34.2292 65.585 34.0212C65.145 33.8132 64.801 33.5172 64.553 33.1332C64.313 32.7492 64.193 32.3012 64.193 31.7892C64.193 31.2052 64.357 30.6932 64.685 30.2532C65.021 29.8052 65.513 29.4532 66.161 29.1972C65.905 28.8932 65.721 28.6132 65.609 28.3572C65.497 28.1012 65.441 27.8212 65.441 27.5172C65.441 27.1652 65.529 26.8492 65.705 26.5692C65.889 26.2812 66.149 26.0572 66.485 25.8972C66.821 25.7372 67.209 25.6572 67.649 25.6572C68.081 25.6572 68.457 25.7412 68.777 25.9092C69.097 26.0772 69.337 26.3132 69.497 26.6172C69.657 26.9132 69.729 27.2452 69.713 27.6132H68.621C68.629 27.2852 68.537 27.0292 68.345 26.8452C68.153 26.6532 67.905 26.5572 67.601 26.5572C67.281 26.5572 67.021 26.6492 66.821 26.8332C66.629 27.0092 66.533 27.2372 66.533 27.5172C66.533 27.7572 66.597 27.9892 66.725 28.2132C66.861 28.4372 67.085 28.7132 67.397 29.0412L69.893 31.5492L70.109 31.2132L70.925 29.8452H72.101L71.117 31.5492C70.981 31.7892 70.821 32.0412 70.637 32.3052L72.521 34.1892H71.093ZM67.121 33.3972C67.553 33.3972 67.941 33.3132 68.285 33.1452C68.637 32.9772 68.969 32.7172 69.281 32.3652L66.821 29.8932C65.797 30.2852 65.285 30.9052 65.285 31.7532C65.285 32.2252 65.453 32.6172 65.789 32.9292C66.133 33.2412 66.577 33.3972 67.121 33.3972ZM83.0793 28.2492C82.8473 27.7612 82.5113 27.3852 82.0713 27.1212C81.6313 26.8492 81.1193 26.7132 80.5353 26.7132C79.9513 26.7132 79.4233 26.8492 78.9513 27.1212C78.4873 27.3852 78.1193 27.7692 77.8473 28.2732C77.5833 28.7692 77.4513 29.3452 77.4513 30.0012C77.4513 30.6572 77.5833 31.2332 77.8473 31.7292C78.1193 32.2252 78.4873 32.6092 78.9513 32.8812C79.4233 33.1452 79.9513 33.2772 80.5353 33.2772C81.3513 33.2772 82.0233 33.0332 82.5513 32.5452C83.0793 32.0572 83.3873 31.3972 83.4753 30.5652H80.1393V29.6772H84.6393V30.5172C84.5753 31.2052 84.3593 31.8372 83.9913 32.4132C83.6233 32.9812 83.1393 33.4332 82.5393 33.7692C81.9393 34.0972 81.2713 34.2612 80.5353 34.2612C79.7593 34.2612 79.0513 34.0812 78.4113 33.7212C77.7713 33.3532 77.2633 32.8452 76.8873 32.1972C76.5193 31.5492 76.3353 30.8172 76.3353 30.0012C76.3353 29.1852 76.5193 28.4532 76.8873 27.8052C77.2633 27.1492 77.7713 26.6412 78.4113 26.2812C79.0513 25.9132 79.7593 25.7292 80.5353 25.7292C81.4233 25.7292 82.2073 25.9492 82.8873 26.3892C83.5753 26.8292 84.0753 27.4492 84.3873 28.2492H83.0793ZM90.4872 34.1892L88.4952 30.7692H87.1752V34.1892H86.0832V25.8252H88.7832C89.4152 25.8252 89.9472 25.9332 90.3792 26.1492C90.8192 26.3652 91.1472 26.6572 91.3632 27.0252C91.5792 27.3932 91.6872 27.8132 91.6872 28.2852C91.6872 28.8612 91.5192 29.3692 91.1832 29.8092C90.8552 30.2492 90.3592 30.5412 89.6952 30.6852L91.7952 34.1892H90.4872ZM87.1752 29.8932H88.7832C89.3752 29.8932 89.8192 29.7492 90.1152 29.4612C90.4112 29.1652 90.5592 28.7732 90.5592 28.2852C90.5592 27.7892 90.4112 27.4052 90.1152 27.1332C89.8272 26.8612 89.3832 26.7252 88.7832 26.7252H87.1752V29.8932ZM97.176 34.2732C96.4 34.2732 95.692 34.0932 95.052 33.7332C94.412 33.3652 93.904 32.8572 93.528 32.2092C93.16 31.5532 92.976 30.8172 92.976 30.0012C92.976 29.1852 93.16 28.4532 93.528 27.8052C93.904 27.1492 94.412 26.6412 95.052 26.2812C95.692 25.9132 96.4 25.7292 97.176 25.7292C97.96 25.7292 98.672 25.9132 99.312 26.2812C99.952 26.6412 100.456 27.1452 100.824 27.7932C101.192 28.4412 101.376 29.1772 101.376 30.0012C101.376 30.8252 101.192 31.5612 100.824 32.2092C100.456 32.8572 99.952 33.3652 99.312 33.7332C98.672 34.0932 97.96 34.2732 97.176 34.2732ZM97.176 33.3252C97.76 33.3252 98.284 33.1892 98.748 32.9172C99.22 32.6452 99.588 32.2572 99.852 31.7532C100.124 31.2492 100.26 30.6652 100.26 30.0012C100.26 29.3292 100.124 28.7452 99.852 28.2492C99.588 27.7452 99.224 27.3572 98.76 27.0852C98.296 26.8132 97.768 26.6772 97.176 26.6772C96.584 26.6772 96.056 26.8132 95.592 27.0852C95.128 27.3572 94.76 27.7452 94.488 28.2492C94.224 28.7452 94.092 29.3292 94.092 30.0012C94.092 30.6652 94.224 31.2492 94.488 31.7532C94.76 32.2572 95.128 32.6452 95.592 32.9172C96.064 33.1892 96.592 33.3252 97.176 33.3252ZM113.33 25.8252L110.906 34.1892H109.682L107.738 27.4572L105.722 34.1892L104.51 34.2012L102.17 25.8252H103.334L105.158 32.9172L107.174 25.8252H108.398L110.318 32.8932L112.154 25.8252H113.33Z" fill="white"/>
<rect x="55.749" y="0.154297" width="1" height="36.417" fill="white"/>
<path fill-rule="evenodd" clip-rule="evenodd" d="M8.09725 12.3285C10.1863 12.1741 11.8674 13.7714 12.0706 15.6271C12.3253 17.8428 10.7975 19.5433 8.96311 19.8009C6.72215 20.1104 5.1937 18.5643 4.98972 16.5542C4.78645 14.3385 6.16155 12.5348 8.09725 12.3285ZM15.4841 3.98083H12.4786C12.122 4.18646 11.816 4.23841 11.7654 4.90795C11.6634 6.2997 11.8674 8.36099 11.7654 9.85519C10.6955 8.87613 9.98231 8.25782 8.24988 8.25782C-0.104145 8.20587 -1.58124 19.4402 4.32785 22.8925C6.16155 23.9747 8.30123 24.3874 10.3389 23.3052C11.2048 22.8925 11.6127 22.3773 11.8674 22.2229C12.122 22.5837 12.224 23.2532 12.5292 23.5115C12.8352 23.7691 13.9051 23.6659 14.3629 23.6659C16.35 23.6659 16.35 23.6659 16.2994 21.6558C15.9934 21.3983 15.6368 20.9863 15.3821 20.5736C13.0385 17.4301 13.7011 12.6892 16.2994 10.3191C16.2994 8.72173 16.35 6.50532 16.2994 4.95989C16.2994 4.23841 15.7388 4.13523 15.4841 3.98083Z" fill="white"/>
<path fill-rule="evenodd" clip-rule="evenodd" d="M19.4065 14.0809C19.5598 13.5657 20.171 12.9474 20.5276 12.5867C21.6481 11.6588 23.3292 11.762 24.2464 12.6379C24.603 12.9474 25.1629 13.5138 25.3669 14.0809H19.4065ZM14.9238 15.7814C14.9238 17.2244 15.0258 18.2034 15.6371 19.4401C17.3688 22.9443 21.5461 24.8512 25.2649 23.4595C26.2841 23.0987 26.6407 22.738 27.0993 22.5324C26.9973 22.326 26.0295 21.6558 25.9781 20.9862C25.8761 20.3679 26.4367 20.0584 27.0993 19.3888C26.2327 18.1515 25.6729 19.0793 25.1629 19.3888C23.7372 20.2647 21.6481 20.4711 20.273 19.3888C19.9164 19.0793 19.2538 18.3066 19.2538 17.4819H27.0993C27.8125 17.4819 28.9837 17.5851 29.3916 17.1212C29.035 16.7605 26.5387 16.1421 26.5387 12.5347C26.5387 11.1437 27.0993 10.6278 27.2006 10.2158C25.3669 8.25772 21.7501 7.63941 19.2032 8.97921C18.7446 9.18556 18.388 9.39118 18.0314 9.64875C17.3181 10.2158 17.6241 10.0095 17.0635 10.5254C16.7069 10.8861 16.5543 11.1437 16.2483 11.5556C15.4844 12.6891 14.9238 14.3384 14.9238 15.7814Z" fill="white"/>
<path fill-rule="evenodd" clip-rule="evenodd" d="M48.7492 21.811V21.6046L47.3227 19.337C47.1187 19.0794 47.0175 18.8731 46.6095 18.8219C44.2152 20.9863 42.2289 19.5433 41.9742 19.5946L39.4266 21.0375L40.7004 18.4099C40.4458 17.946 40.2418 17.6884 40.0892 17.0181C39.172 13.3082 43.6553 10.7311 46.3549 13.1531C46.8641 13.617 47.2207 13.1531 47.4754 12.638C47.7307 12.1741 47.9853 11.8133 48.2399 11.3494C48.4432 10.9374 48.8512 10.4223 48.3926 9.90715C47.8833 9.39128 46.6095 8.77297 45.7436 8.5154C43.3493 7.84586 40.9044 8.5154 39.2233 9.59763C35.6572 12.0709 34.842 17.4821 37.5929 20.9863C38.6121 22.2742 40.3944 23.614 42.7887 23.8723C44.6232 24.0779 46.1509 23.6659 47.6793 22.79C47.8833 22.6349 48.0873 22.5325 48.2906 22.3773C48.5965 22.1198 48.5452 22.2229 48.7492 21.811Z" fill="white"/>
<path fill-rule="evenodd" clip-rule="evenodd" d="M37.5929 22.0685C37.4909 21.9134 37.1343 21.5526 36.9817 21.3982C36.4211 20.9343 35.7079 19.6977 35.4532 18.925C34.7914 17.2244 34.842 16.1422 35.0966 14.2872C34.638 14.1841 34.1288 13.8745 33.1103 13.6682C32.499 13.5138 31.5312 13.205 31.8878 12.3803C32.1931 11.762 33.8235 11.762 34.74 12.4835C35.046 12.6891 35.0966 12.9474 35.5046 13.0499C36.0138 11.5045 37.4403 10.3703 37.5423 10.1127C36.8797 9.59756 36.5231 9.13364 35.4532 8.66973C32.0404 7.22675 26.4366 8.9273 27.6591 13.9777C28.1177 15.9358 29.6461 16.9149 31.3272 17.482C31.9891 17.7396 33.5175 18.0491 33.9248 18.461C34.2814 18.8218 34.2308 19.4913 33.8235 19.7496C33.0589 20.2648 31.8365 20.1616 30.9706 19.7496C29.6461 19.1313 29.3915 18.2035 28.7803 18.6674L26.9972 20.4711C26.7426 21.0375 27.1498 21.5014 27.3538 21.8109C28.4743 23.2532 30.614 23.9234 32.3457 23.9746C33.9248 24.0266 36.0138 23.6139 37.1343 22.5324C37.3383 22.326 37.3889 22.2741 37.5929 22.0685Z" fill="white"/>
<path fill-rule="evenodd" clip-rule="evenodd" d="M43.3491 13.3595C41.974 13.6171 40.7002 14.9569 41.0568 16.7606C41.362 18.2036 42.6872 19.389 44.4189 19.0794C45.794 18.8219 47.0678 17.4301 46.7112 15.6784C46.406 14.029 44.8775 13.05 43.3491 13.3595Z" fill="#FAAA00"/>
<path d="M4.21717 32.8338C3.67322 32.8338 3.20249 32.7148 2.80498 32.4767C2.41271 32.2333 2.10935 31.8973 1.89491 31.4688C1.68046 31.0349 1.57324 30.5349 1.57324 29.9688C1.57324 29.3974 1.68046 28.8974 1.89491 28.4688C2.10935 28.035 2.41271 27.6963 2.80498 27.453C3.20249 27.2096 3.67322 27.0879 4.21717 27.0879C4.8605 27.0879 5.38615 27.2466 5.79412 27.5641C6.20208 27.8815 6.46098 28.326 6.57082 28.8974H5.64505C5.57183 28.5746 5.41492 28.318 5.17432 28.1276C4.93373 27.9371 4.61206 27.8418 4.20933 27.8418C3.66014 27.8418 3.22603 28.0323 2.90698 28.4133C2.58793 28.7889 2.4284 29.3074 2.4284 29.9688C2.4284 30.6249 2.58793 31.1407 2.90698 31.5164C3.22603 31.892 3.66014 32.0799 4.20933 32.0799C4.61206 32.0799 4.93373 31.9899 5.17432 31.81C5.41492 31.6301 5.57183 31.3841 5.64505 31.0719H6.57082C6.46098 31.6222 6.20208 32.0534 5.79412 32.3656C5.38615 32.6777 4.8605 32.8338 4.21717 32.8338Z" fill="white"/>
<path d="M10.019 32.8338C9.47508 32.8338 8.99912 32.7121 8.59116 32.4687C8.18319 32.2254 7.86414 31.8894 7.63401 31.4608C7.40387 31.027 7.28881 30.527 7.28881 29.9609C7.28881 29.3947 7.40387 28.8974 7.63401 28.4688C7.86414 28.035 8.18319 27.6963 8.59116 27.453C8.99912 27.2096 9.47508 27.0879 10.019 27.0879C10.563 27.0879 11.039 27.2096 11.4469 27.453C11.8549 27.6963 12.1713 28.035 12.3962 28.4688C12.6264 28.8974 12.7414 29.3947 12.7414 29.9609C12.7414 30.527 12.6264 31.027 12.3962 31.4608C12.1713 31.8894 11.8549 32.2254 11.4469 32.4687C11.039 32.7121 10.563 32.8338 10.019 32.8338ZM10.019 32.0799C10.3956 32.0799 10.7225 31.9952 10.9997 31.8259C11.2822 31.6566 11.5018 31.4132 11.6587 31.0958C11.8157 30.7783 11.8941 30.4 11.8941 29.9609C11.8941 29.5217 11.8157 29.1434 11.6587 28.826C11.5018 28.5085 11.2822 28.2651 10.9997 28.0958C10.7225 27.9265 10.3956 27.8418 10.019 27.8418C9.64245 27.8418 9.31294 27.9265 9.03051 28.0958C8.74807 28.2651 8.52839 28.5085 8.37148 28.826C8.2198 29.1434 8.14397 29.5217 8.14397 29.9609C8.14397 30.4 8.2198 30.7783 8.37148 31.0958C8.52839 31.4132 8.74807 31.6566 9.03051 31.8259C9.31294 31.9952 9.64245 32.0799 10.019 32.0799Z" fill="white"/>
<path d="M13.6679 32.7386V27.1831H14.6486L16.5079 30.8815L18.3595 27.1831H19.3402V32.7386H18.5085V28.6355L16.8296 31.9449H16.1863L14.4995 28.6434V32.7386H13.6679Z" fill="white"/>
<path d="M20.4561 32.7386V27.1831H21.4367L23.2961 30.8815L25.1477 27.1831H26.1283V32.7386H25.2967V28.6355L23.6178 31.9449H22.9745L21.2877 28.6434V32.7386H20.4561Z" fill="white"/>
<path d="M29.2998 32.8338C28.9075 32.8338 28.5518 32.7571 28.2328 32.6037C27.919 32.4449 27.6679 32.2042 27.4796 31.8815C27.2965 31.5587 27.205 31.1487 27.205 30.6513V27.1831H28.0366V30.6593C28.0366 31.146 28.1517 31.5032 28.3818 31.7307C28.612 31.9582 28.9232 32.0719 29.3155 32.0719C29.7025 32.0719 30.0111 31.9582 30.2412 31.7307C30.4714 31.5032 30.5864 31.146 30.5864 30.6593V27.1831H31.418V30.6513C31.418 31.1487 31.3213 31.5587 31.1278 31.8815C30.9395 32.2042 30.6832 32.4449 30.3589 32.6037C30.0399 32.7571 29.6868 32.8338 29.2998 32.8338Z" fill="white"/>
<path d="M32.4848 32.7386V27.1831H33.3164L36.0702 31.3656V27.1831H36.9018V32.7386H36.0702L33.3164 28.5561V32.7386H32.4848Z" fill="white"/>
<path d="M38.0165 32.7386V27.1831H38.8481V32.7386H38.0165Z" fill="white"/>
<path d="M41.2492 32.7386V27.8657H39.6252V27.1831H43.697V27.8657H42.0808V32.7386H41.2492Z" fill="white"/>
<path d="M45.8717 32.7386V30.691L44.0516 27.1831H44.993L46.2875 29.8656L47.5742 27.1831H48.5078L46.7033 30.691V32.7386H45.8717Z" fill="white"/>
</svg>
