<svg width="48" height="36" viewBox="0 0 48 36" fill="none" xmlns="http://www.w3.org/2000/svg">
<path fill-rule="evenodd" clip-rule="evenodd" d="M7.34822 12.0347C9.43727 11.8821 11.1183 13.4612 11.3216 15.2956C11.5762 17.4859 10.0485 19.167 8.21408 19.4216C5.97312 19.7276 4.44468 18.1992 4.2407 16.2121C4.03743 14.0218 5.41253 12.2387 7.34822 12.0347ZM14.7351 3.78271H11.7296C11.373 3.98598 11.067 4.03734 11.0163 4.69921C10.9144 6.07503 11.1183 8.11271 11.0163 9.58981C9.94651 8.62196 9.23328 8.01072 7.50086 8.01072C-0.853168 7.95937 -2.33026 19.065 3.57882 22.4778C5.41253 23.5477 7.55221 23.9556 9.5899 22.8858C10.4558 22.4778 10.8637 21.9686 11.1183 21.8159C11.373 22.1726 11.475 22.8344 11.7802 23.0898C12.0862 23.3444 13.156 23.2424 13.6139 23.2424C15.601 23.2424 15.601 23.2424 15.5503 21.2553C15.2444 21.0007 14.8877 20.5935 14.6331 20.1855C12.2895 17.078 12.952 12.3914 15.5503 10.0484C15.5503 8.46933 15.601 6.27829 15.5503 4.75056C15.5503 4.03734 14.9897 3.93535 14.7351 3.78271Z" fill="white"/>
<path fill-rule="evenodd" clip-rule="evenodd" d="M18.6569 13.7672C18.8103 13.2579 19.4215 12.6467 19.7781 12.2901C20.8986 11.3729 22.5797 11.4749 23.4969 12.3407C23.8535 12.6467 24.4134 13.2066 24.6174 13.7672H18.6569ZM14.1743 15.4483C14.1743 16.8747 14.2763 17.8426 14.8875 19.065C16.6193 22.5292 20.7966 24.4142 24.5154 23.0384C25.5346 22.6818 25.8912 22.3252 26.3498 22.1219C26.2478 21.9179 25.28 21.2554 25.2286 20.5935C25.1266 19.9822 25.6872 19.6763 26.3498 19.0144C25.4832 17.7912 24.9234 18.7084 24.4134 19.0144C22.9877 19.8802 20.8986 20.0842 19.5235 19.0144C19.1669 18.7084 18.5043 17.9446 18.5043 17.1293H26.3498C27.063 17.1293 28.2342 17.2313 28.6421 16.7727C28.2855 16.4161 25.7892 15.8049 25.7892 12.2387C25.7892 10.8636 26.3498 10.3537 26.4511 9.94643C24.6174 8.01073 21.0006 7.3995 18.4537 8.72396C17.9951 8.92794 17.6385 9.13121 17.2818 9.38583C16.5686 9.94643 16.8746 9.74245 16.314 10.2524C15.9574 10.609 15.8048 10.8636 15.4988 11.2709C14.7349 12.3914 14.1743 14.0218 14.1743 15.4483Z" fill="white"/>
<path fill-rule="evenodd" clip-rule="evenodd" d="M48.0002 21.4086V21.2046L46.5737 18.9629C46.3697 18.7083 46.2684 18.5043 45.8605 18.4537C43.4662 20.5934 41.4798 19.1669 41.2252 19.2176L38.6776 20.644L39.9514 18.0465C39.6968 17.5878 39.4928 17.3332 39.3402 16.6706C38.4229 13.0032 42.9063 10.4556 45.6059 12.8499C46.1151 13.3085 46.4717 12.8499 46.7263 12.3406C46.9817 11.882 47.2363 11.5254 47.4909 11.0668C47.6942 10.6596 48.1021 10.1503 47.6435 9.64108C47.1343 9.13112 45.8605 8.51988 44.9946 8.26526C42.6003 7.60339 40.1554 8.26526 38.4743 9.3351C34.9082 11.78 34.0929 17.1292 36.8439 20.5934C37.8631 21.8665 39.6454 23.191 42.0397 23.4463C43.8741 23.6496 45.4019 23.2423 46.9303 22.3765C47.1343 22.2231 47.3383 22.1218 47.5415 21.9685C47.8475 21.7139 47.7962 21.8159 48.0002 21.4086Z" fill="white"/>
<path fill-rule="evenodd" clip-rule="evenodd" d="M36.8439 21.6632C36.7419 21.5098 36.3853 21.1532 36.2327 21.0006C35.6721 20.542 34.9588 19.3195 34.7042 18.5557C34.0423 16.8746 34.093 15.8047 34.3476 13.971C33.889 13.869 33.3797 13.5631 32.3613 13.3591C31.75 13.2065 30.7822 12.9012 31.1388 12.086C31.4441 11.4747 33.0745 11.4747 33.991 12.188C34.297 12.3912 34.3476 12.6466 34.7556 12.7478C35.2648 11.2201 36.6913 10.0989 36.7933 9.8443C36.1307 9.33506 35.7741 8.87646 34.7042 8.41785C31.2914 6.9914 25.6876 8.67247 26.9101 13.6651C27.3687 15.6008 28.8971 16.5686 30.5782 17.1292C31.2401 17.3838 32.7685 17.6898 33.1758 18.097C33.5324 18.4537 33.4817 19.1155 33.0745 19.3709C32.3099 19.8801 31.0874 19.7781 30.2216 19.3709C28.8971 18.7596 28.6425 17.8424 28.0313 18.301L26.2482 20.0841C25.9936 20.644 26.4008 21.1026 26.6048 21.4086C27.7253 22.8343 29.865 23.4969 31.5967 23.5475C33.1758 23.5989 35.2648 23.1909 36.3853 22.1218C36.5893 21.9178 36.6399 21.8665 36.8439 21.6632Z" fill="white"/>
<path fill-rule="evenodd" clip-rule="evenodd" d="M42.6001 13.054C41.225 13.3087 39.9511 14.6331 40.3077 16.4162C40.613 17.8426 41.9382 19.0145 43.6699 18.7085C45.045 18.4539 46.3188 17.0781 45.9622 15.3463C45.6569 13.7159 44.1285 12.7481 42.6001 13.054Z" fill="#FAAA00"/>
<path d="M3.46815 32.3054C2.9242 32.3054 2.45347 32.1877 2.05596 31.9523C1.66369 31.7117 1.36033 31.3796 1.14588 30.956C0.93144 30.5271 0.824219 30.0328 0.824219 29.4732C0.824219 28.9083 0.93144 28.414 1.14588 27.9904C1.36033 27.5615 1.66369 27.2267 2.05596 26.9861C2.45347 26.7455 2.9242 26.6252 3.46815 26.6252C4.11148 26.6252 4.63713 26.7822 5.04509 27.096C5.45306 27.4098 5.71196 27.8491 5.8218 28.414H4.89603C4.8228 28.095 4.66589 27.8413 4.4253 27.653C4.1847 27.4647 3.86304 27.3706 3.4603 27.3706C2.91112 27.3706 2.477 27.5589 2.15795 27.9354C1.8389 28.3068 1.67938 28.8194 1.67938 29.4732C1.67938 30.1217 1.8389 30.6317 2.15795 31.003C2.477 31.3744 2.91112 31.5601 3.4603 31.5601C3.86304 31.5601 4.1847 31.4711 4.4253 31.2933C4.66589 31.1155 4.8228 30.8723 4.89603 30.5637H5.8218C5.71196 31.1076 5.45306 31.5339 5.04509 31.8425C4.63713 32.1511 4.11148 32.3054 3.46815 32.3054Z" fill="white"/>
<path d="M9.27001 32.3054C8.72606 32.3054 8.2501 32.1851 7.84213 31.9445C7.43417 31.7039 7.11512 31.3718 6.88498 30.9481C6.65485 30.5192 6.53978 30.025 6.53978 29.4653C6.53978 28.9057 6.65485 28.414 6.88498 27.9904C7.11512 27.5615 7.43417 27.2267 7.84213 26.9861C8.2501 26.7455 8.72606 26.6252 9.27001 26.6252C9.81397 26.6252 10.2899 26.7455 10.6979 26.9861C11.1059 27.2267 11.4223 27.5615 11.6472 27.9904C11.8773 28.414 11.9924 28.9057 11.9924 29.4653C11.9924 30.025 11.8773 30.5192 11.6472 30.9481C11.4223 31.3718 11.1059 31.7039 10.6979 31.9445C10.2899 32.1851 9.81397 32.3054 9.27001 32.3054ZM9.27001 31.5601C9.6466 31.5601 9.97349 31.4764 10.2507 31.309C10.5331 31.1416 10.7528 30.901 10.9097 30.5872C11.0666 30.2734 11.1451 29.8994 11.1451 29.4653C11.1451 29.0312 11.0666 28.6572 10.9097 28.3434C10.7528 28.0296 10.5331 27.789 10.2507 27.6216C9.97349 27.4543 9.6466 27.3706 9.27001 27.3706C8.89343 27.3706 8.56392 27.4543 8.28148 27.6216C7.99904 27.789 7.77937 28.0296 7.62246 28.3434C7.47078 28.6572 7.39494 29.0312 7.39494 29.4653C7.39494 29.8994 7.47078 30.2734 7.62246 30.5872C7.77937 30.901 7.99904 31.1416 8.28148 31.309C8.56392 31.4764 8.89343 31.5601 9.27001 31.5601Z" fill="white"/>
<path d="M12.9188 32.2112V26.7194H13.8995L15.7589 30.3754L17.6104 26.7194H18.5911V32.2112H17.7595V28.1551L16.0806 31.4267H15.4372L13.7505 28.163V32.2112H12.9188Z" fill="white"/>
<path d="M19.707 32.2112V26.7194H20.6877L22.5471 30.3754L24.3986 26.7194H25.3793V32.2112H24.5477V28.1551L22.8688 31.4267H22.2254L20.5387 28.163V32.2112H19.707Z" fill="white"/>
<path d="M28.5507 32.3054C28.1585 32.3054 27.8028 32.2295 27.4838 32.0779C27.1699 31.921 26.9189 31.683 26.7306 31.3639C26.5475 31.0449 26.456 30.6395 26.456 30.1479V26.7194H27.2876V30.1557C27.2876 30.6369 27.4027 30.99 27.6328 31.2149C27.863 31.4398 28.1742 31.5522 28.5664 31.5522C28.9535 31.5522 29.2621 31.4398 29.4922 31.2149C29.7223 30.99 29.8374 30.6369 29.8374 30.1557V26.7194H30.669V30.1479C30.669 30.6395 30.5723 31.0449 30.3787 31.3639C30.1905 31.683 29.9342 31.921 29.6099 32.0779C29.2908 32.2295 28.9378 32.3054 28.5507 32.3054Z" fill="white"/>
<path d="M31.7358 32.2112V26.7194H32.5674L35.3212 30.854V26.7194H36.1528V32.2112H35.3212L32.5674 28.0767V32.2112H31.7358Z" fill="white"/>
<path d="M37.2675 32.2112V26.7194H38.0991V32.2112H37.2675Z" fill="white"/>
<path d="M40.5002 32.2112V27.3941H38.8761V26.7194H42.948V27.3941H41.3318V32.2112H40.5002Z" fill="white"/>
<path d="M45.1227 32.2112V30.1871L43.3025 26.7194H44.244L45.5385 29.3712L46.8252 26.7194H47.7588L45.9543 30.1871V32.2112H45.1227Z" fill="white"/>
</svg>
