<svg width="48" height="21" viewBox="0 0 48 21" fill="none" xmlns="http://www.w3.org/2000/svg">
<path fill-rule="evenodd" clip-rule="evenodd" d="M7.34822 9.03475C9.43727 8.88212 11.1183 10.4612 11.3216 12.2956C11.5762 14.4859 10.0485 16.167 8.21408 16.4216C5.97312 16.7276 4.44468 15.1992 4.2407 13.2121C4.03743 11.0218 5.41253 9.23873 7.34822 9.03475ZM14.7351 0.782715H11.7296C11.373 0.985984 11.067 1.03734 11.0163 1.69921C10.9144 3.07503 11.1183 5.11271 11.0163 6.58981C9.94651 5.62196 9.23328 5.01072 7.50086 5.01072C-0.853168 4.95937 -2.33026 16.065 3.57882 19.4778C5.41253 20.5477 7.55221 20.9556 9.5899 19.8858C10.4558 19.4778 10.8637 18.9686 11.1183 18.8159C11.373 19.1726 11.475 19.8344 11.7802 20.0898C12.0862 20.3444 13.156 20.2424 13.6139 20.2424C15.601 20.2424 15.601 20.2424 15.5503 18.2553C15.2444 18.0007 14.8877 17.5935 14.6331 17.1855C12.2895 14.078 12.952 9.39136 15.5503 7.04841C15.5503 5.46933 15.601 3.27829 15.5503 1.75056C15.5503 1.03734 14.9897 0.935345 14.7351 0.782715Z" fill="#08072D"/>
<path fill-rule="evenodd" clip-rule="evenodd" d="M18.6569 10.7672C18.8103 10.2579 19.4215 9.64671 19.7781 9.29009C20.8986 8.37288 22.5797 8.47487 23.4969 9.34073C23.8535 9.64671 24.4134 10.2066 24.6174 10.7672H18.6569ZM14.1743 12.4483C14.1743 13.8747 14.2763 14.8426 14.8875 16.065C16.6193 19.5292 20.7966 21.4142 24.5154 20.0384C25.5346 19.6818 25.8912 19.3252 26.3498 19.1219C26.2478 18.9179 25.28 18.2554 25.2286 17.5935C25.1266 16.9822 25.6872 16.6763 26.3498 16.0144C25.4832 14.7912 24.9234 15.7084 24.4134 16.0144C22.9877 16.8802 20.8986 17.0842 19.5235 16.0144C19.1669 15.7084 18.5043 14.9446 18.5043 14.1293H26.3498C27.063 14.1293 28.2342 14.2313 28.6421 13.7727C28.2855 13.4161 25.7892 12.8049 25.7892 9.23874C25.7892 7.86364 26.3498 7.35368 26.4511 6.94643C24.6174 5.01073 21.0006 4.3995 18.4537 5.72396C17.9951 5.92794 17.6385 6.13121 17.2818 6.38583C16.5686 6.94643 16.8746 6.74245 16.314 7.2524C15.9574 7.60902 15.8048 7.86364 15.4988 8.27089C14.7349 9.39137 14.1743 11.0218 14.1743 12.4483Z" fill="#08072D"/>
<path fill-rule="evenodd" clip-rule="evenodd" d="M48.0002 18.4086V18.2046L46.5737 15.9629C46.3697 15.7083 46.2684 15.5043 45.8605 15.4537C43.4662 17.5934 41.4798 16.1669 41.2252 16.2176L38.6776 17.644L39.9514 15.0465C39.6968 14.5878 39.4928 14.3332 39.3402 13.6706C38.4229 10.0032 42.9063 7.45558 45.6059 9.84988C46.1151 10.3085 46.4717 9.84988 46.7263 9.34064C46.9817 8.88203 47.2363 8.52542 47.4909 8.06682C47.6942 7.65956 48.1021 7.15032 47.6435 6.64108C47.1343 6.13112 45.8605 5.51988 44.9946 5.26526C42.6003 4.60339 40.1554 5.26526 38.4743 6.3351C34.9082 8.78004 34.0929 14.1292 36.8439 17.5934C37.8631 18.8665 39.6454 20.191 42.0397 20.4463C43.8741 20.6496 45.4019 20.2423 46.9303 19.3765C47.1343 19.2231 47.3383 19.1218 47.5415 18.9685C47.8475 18.7139 47.7962 18.8159 48.0002 18.4086Z" fill="#08072D"/>
<path fill-rule="evenodd" clip-rule="evenodd" d="M36.8439 18.6632C36.7419 18.5098 36.3853 18.1532 36.2327 18.0006C35.6721 17.542 34.9588 16.3195 34.7042 15.5557C34.0423 13.8746 34.093 12.8047 34.3476 10.971C33.889 10.869 33.3797 10.5631 32.3613 10.3591C31.75 10.2065 30.7822 9.90119 31.1388 9.08598C31.4441 8.47474 33.0745 8.47474 33.991 9.18797C34.297 9.39124 34.3476 9.64657 34.7556 9.74785C35.2648 8.22012 36.6913 7.09893 36.7933 6.8443C36.1307 6.33506 35.7741 5.87646 34.7042 5.41785C31.2914 3.9914 25.6876 5.67247 26.9101 10.6651C27.3687 12.6008 28.8971 13.5686 30.5782 14.1292C31.2401 14.3838 32.7685 14.6898 33.1758 15.097C33.5324 15.4537 33.4817 16.1155 33.0745 16.3709C32.3099 16.8801 31.0874 16.7781 30.2216 16.3709C28.8971 15.7596 28.6425 14.8424 28.0313 15.301L26.2482 17.0841C25.9936 17.644 26.4008 18.1026 26.6048 18.4086C27.7253 19.8343 29.865 20.4969 31.5967 20.5475C33.1758 20.5989 35.2648 20.1909 36.3853 19.1218C36.5893 18.9178 36.6399 18.8665 36.8439 18.6632Z" fill="#08072D"/>
<path fill-rule="evenodd" clip-rule="evenodd" d="M42.6001 10.0538C41.225 10.3084 39.9511 11.6329 40.3077 13.4159C40.613 14.8424 41.9382 16.0142 43.6699 15.7082C45.045 15.4536 46.3188 14.0778 45.9622 12.3461C45.6569 10.7157 44.1285 9.74781 42.6001 10.0538Z" fill="#FAAA00"/>
</svg>
